<svg xmlns="http://www.w3.org/2000/svg" width="80" height="80" style="shape-rendering:geometricPrecision;text-rendering:geometricPrecision;image-rendering:optimizeQuality;fill-rule:evenodd;clip-rule:evenodd">
  <defs>
    <style>.fil2 { fill: #fffffe; fill-rule: nonzero; }</style>
  </defs>
  <g id="Layer1">
    <rect width="2048" height="2048" rx="256" ry="256" style="fill:#42a5f5" />
    <path class="fil2" d="M1313.12 800.668c82.044 0 158.081 29.593 219.01 78.337 60.021 48.017 105.311 114.658 127.179 189.93 40.748 30.955 73.178 69.732 95.804 114.797 23.813 47.43 36.587 101.453 36.587 160.249 0 97.382-37.103 186.158-98.335 250.335-60.255 63.152-143.727 102.354-238.041 102.354H724.55c-16.951 0-23.33.102-30.109.209-48.782.772-108.536 1.718-151.14-10.798-55.566-16.324-102.97-50.617-136.335-96.38-32.895-45.12-52.144-101.277-52.144-162.273 0-14.665 1.241-29.103 3.607-43.23 11.373-67.908 48.857-126.749 99.687-168.474 50.39-41.366 114.086-66.047 178.428-66.047 3.524 0 7.079.079 10.664.242 7.956-41.462 23.285-80.395 45.128-113.646 26.607-40.505 62.792-72.632 107.078-90.904 42.386-17.477 86.851-20.077 128.932-10.365 31.406 7.248 61.5 21.372 88.39 41.28 29.202-47.684 67.846-89.055 113.733-119.645 52.634-35.089 114.618-55.972 182.651-55.972zM480.42 862.723l-224.118-.42.121-63.58 224.118.419zM704.541 574.724V350.725l63.971-.001.001 223.871zM539.814 672.824 390.095 518.489l44.355-43.029 148.805 153.391zM917.351 625.081l148.079-154.473 44.61 42.763-148.796 155.223z" />
    <path class="fil2" d="M639.661 1064.39c-1.723-.883-3.155-1.62-3.442-1.782-25.716-14.48-48.54-33.607-67.357-56.267-35.144-42.32-56.328-96.87-56.328-156.31 0-66.915 26.775-127.579 70.056-171.567 43.506-44.217 103.586-71.566 169.921-71.566 66.332 0 126.412 27.35 169.916 71.566 43.28 43.988 70.05 104.652 70.05 171.567 0 24.57-3.63 48.336-10.38 70.778-15.043-6.561-30.689-11.766-46.769-15.446-6.6-1.483-10.151-2.213-13.707-2.866.232-.79.461-1.583.683-2.378-45.701-7.974-92.218-3.101-135.474 14.74-47.68 19.666-86.991 53.18-116.472 95.053l.3.16a312.236 312.236 0 0 0-4.771 6.984c-9.268 13.985-17.362 28.716-26.225 47.334zM1070.29 862.397h-45.907v-63.675h145.416c-19.735 8.61-38.811 19.014-57.08 31.13-14.895 9.88-29.057 20.775-42.43 32.545zM379.29 1167.51l148.083-153.685 44.61 42.546-114.848 119.195a292.87 292.87 0 0 0-38.06 30.946l-.121.117-39.664-39.118z" />
  </g>
</svg>
